<?xml version="1.0" encoding="UTF-8"?>
<svg id="Layer_1" xmlns="http://www.w3.org/2000/svg" version="1.1" viewBox="-22 -4.3 100 100">
  <!-- Generator: Adobe Illustrator 30.2.1, SVG Export Plug-In . SVG Version: 2.1.1 Build 1)  -->
  <path d="M55.84,26.8v1.93c0,.26-.06.59-.08.9-.32,4.41-1.93,8.29-4.33,11.96-.96,1.47-1.95,2.85-3.07,4.19l-3.53,4.23-3.53,4.24c-1.61,1.94-3.21,4.53-4.15,6.88-.33.82-.45,1.67-.56,2.55l-.31,2.58c-.1.82-.34,1.59-.68,2.33-.6,1.29-2.05,1.84-3.34,1.24s-2.04-1.81-2.13-3.19c-.1-1.51-.04-2.94.3-4.41.62-2.73,1.86-5.22,3.36-7.57s3.19-4.61,5.03-6.75l3.45-4.03c1.17-1.36,2.25-2.73,3.27-4.21,2.32-3.33,3.97-6.93,4.17-11.05.36-7.4-3.44-14.52-9.41-18.77-1.71-1.22-3.58-2.16-5.57-2.83-2.71-.91-5.5-1.12-8.33-.86-1.61.15-3.11.32-4.64.83-4.28,1.41-7.65,3.94-10.66,7.23-1.47,1.61-2.65,3.39-3.47,5.43-.9,2.27-1.39,4.64-1.49,7.09-.05,1.33-.1,3.14-.82,4.24-.48.73-1.32,1.11-2.2,1.08-1.14-.03-2.09-.73-2.55-1.75-.32-.71-.44-1.45-.48-2.23-.04-.74-.05-1.48,0-2.24l.04-.58c.15-2.34.62-4.59,1.42-6.8C3.81,12.13,8.52,6.73,14.35,3.42c2.13-1.21,4.38-2.17,6.77-2.73,1.6-.37,3.19-.5,4.82-.58l.63-.03c.89-.05,1.74-.03,2.64,0,2.56.11,5.05.46,7.51,1.2,1.9.57,3.74,1.29,5.45,2.33,3.44,2.09,6.4,4.9,8.74,8.17,1.28,1.8,2.33,3.71,3.14,5.76,1.04,2.61,1.58,5.32,1.68,8.12,0-.03.08,1.31.11,1.14Z"/>
  <g>
    <path d="M25.4,54.33c-1.46-.05-2.47-1.21-2.47-2.62v-19.65s-8.48-.03-8.48-.03c-1.38,0-2.37-1.26-2.39-2.55s.98-2.6,2.39-2.61l8.49-.03v-8.49c.01-1.37,1.16-2.41,2.49-2.44,1.42-.03,2.6,1.06,2.61,2.5v8.44s8.55.03,8.55.03c1.38,0,2.37,1.26,2.39,2.55s-.98,2.6-2.39,2.61l-8.55.03v19.7c0,1.46-1.15,2.61-2.63,2.56Z"/>
    <g>
      <g>
        <path d="M26.82,77.32h-9.37c-1.54,0-2.69-1.31-2.67-2.82s1.15-2.76,2.67-2.76h9.34c1.54,0,2.69,1.32,2.67,2.82s-1.11,2.76-2.64,2.76Z"/>
        <circle cx="33.33" cy="74.45" r="2.85"/>
      </g>
      <g>
        <path d="M30.53,91.45h-10.14c-1.3,0-2.26-1.5-2.27-2.63-.01-1.5,1.08-2.74,2.56-2.74h9.56c1.48,0,2.57,1.28,2.56,2.7s-.97,2.4-2.27,2.67Z"/>
        <path d="M33.5,84.42h-15.93c-1.53,0-2.69-1.21-2.68-2.72s1.17-2.66,2.68-2.66h15.9c1.5,0,2.66,1.17,2.68,2.67s-1.11,2.72-2.64,2.72Z"/>
      </g>
    </g>
  </g>
</svg>