<?xml version="1.0" encoding="UTF-8"?>
<svg id="Layer_1" xmlns="http://www.w3.org/2000/svg" baseProfile="tiny" version="1.2" viewBox="0 0 55.84 91.45">
  <!-- Generator: Adobe Illustrator 30.2.1, SVG Export Plug-In . SVG Version: 2.1.1 Build 1)  -->
  <path d="M55.81,25.19c1.16,11.47-5.64,18.7-12.73,26.69-2.98,3.85-6.05,7.15-6.54,12.13-.28,1.72.02,4.07-1.22,5.37-1.24,1.17-3.96.61-4.74-1.1-.6-1.08-.61-2.29-.5-3.45.14-3.64,1.64-7.27,3.64-10.11,4.53-8.01,13.35-13.73,15.6-22.95,3.11-12.6-7.84-26.63-21.12-25.81-6.75-.28-12.51,2.99-16.96,7.93-3.78,3.78-5.23,8.89-4.92,14.36.14,2.99-2.43,4.68-4.97,3.23-2.17-2.02-1.06-6.63-.9-9.07C1.9,13.8,7.73,6.91,15.12,2.83,20.05-.02,26.35-.27,31.8.09c12.64,1.04,23.34,12.42,24,24.94v.16Z"/>
  <g>
    <path d="M24.73,54.14c-2.31-.94-1.77-4.11-1.79-6.13-.02-3.82-.02-7.82-.03-11.75-.06-1.34.28-3.42-1.27-3.99-2.03-.66-5.55.09-7.78-.53-2.12-.49-2.43-3.86-.25-4.56,2.63-1.1,6.21.59,8.78-1.08,1.34-2.44.02-5.81.81-8.39.51-2.09,3.88-2.22,4.46-.15.51,1.98.14,4.41.27,6.49-.11,2.36,1.37,2.71,3.46,2.63,2.49.2,6.22-.77,7.31,1.8.59,1.51-.63,3.16-2.15,3.36-2.07.36-5.18-.04-7.16.26-1.1.14-1.5,1.2-1.41,2.18,0,3.86,0,13.6,0,17.15.2,1.73-1.51,3.34-3.25,2.68Z"/>
    <g>
      <g>
        <path d="M27.17,77.28c-2.78.21-6,.02-8.76.09-.89,0-1.91.04-2.63-.5-1.66-1.27-1.13-4.54.98-5.02,2.16-.38,4.65,0,7.01-.17,1.62.07,3.43-.35,4.79.67,1.6,1.41.83,4.7-1.38,4.93Z"/>
        <path d="M33.05,77.27c-3.43-.14-3.49-5.72.1-5.65,4.25-.65,4.01,6.08.05,5.66h-.15Z"/>
      </g>
      <g>
        <path d="M31.45,91.31c-2.97.39-8.69.05-10.99.12-3.36-.38-2.87-5.55.64-5.36,2.6.02,5.11.02,7.74.02,1.12,0,2.57-.07,3.29.9,1.02,1.17.71,3.47-.55,4.27l-.13.05Z"/>
        <path d="M34.1,84.22c-3.46.24-8.48.08-12.23.11-1.74-.03-3.12.03-4.48-.06-3.5-.55-3.15-5.32.59-5.15,3.9-.06,7.92,0,11.85,0,1.77.03,3.87-.41,5.41.65,1.59,1.22.81,4.1-1.15,4.46Z"/>
      </g>
    </g>
  </g>
</svg>